<?xml version="1.0" encoding="UTF-8"?>
<svg xmlns="http://www.w3.org/2000/svg" xmlns:xlink="http://www.w3.org/1999/xlink" width="21px" height="21px" viewBox="0 0 21 21" version="1.1">
<g id="surface1">
<path style=" stroke:none;fill-rule:nonzero;fill:rgb(0%,0%,0%);fill-opacity:1;" d="M 11.15625 15.75 L 11.15625 17.238281 C 11.671875 17.535156 11.921875 18.140625 11.769531 18.714844 C 11.613281 19.289062 11.09375 19.6875 10.5 19.6875 C 9.90625 19.6875 9.386719 19.289062 9.230469 18.714844 C 9.078125 18.140625 9.328125 17.535156 9.84375 17.238281 L 9.84375 15.75 L 3.28125 15.75 C 2.195312 15.75 1.3125 14.867188 1.3125 13.78125 L 1.3125 3.9375 L 19.6875 3.9375 L 19.6875 13.78125 C 19.6875 14.867188 18.804688 15.75 17.71875 15.75 Z M 20.34375 2.625 C 20.707031 2.625 21 2.332031 21 1.96875 C 21 1.605469 20.707031 1.3125 20.34375 1.3125 L 0.65625 1.3125 C 0.292969 1.3125 0 1.605469 0 1.96875 C 0 2.332031 0.292969 2.625 0.65625 2.625 Z M 20.34375 2.625 "/>
</g>
</svg>
