<svg xmlns="http://www.w3.org/2000/svg" fill="none" viewBox="0 0 40 40" height="48" width="48"><g clip-path="url(#pdf_svg__a)"><path fill="#C23345" d="M20.007 0C11.657 0 9.215.009 8.74.048c-1.713.142-2.78.412-3.941.99A8 8 0 0 0 2.5 2.722C1.23 4.04.463 5.661.184 7.587.05 8.523.01 8.713.001 13.492c-.003 1.592 0 3.688 0 6.5 0 8.345.01 10.786.05 11.26.138 1.667.4 2.717.953 3.865 1.059 2.197 3.08 3.846 5.46 4.461.825.213 1.736.33 2.905.385.495.022 5.543.037 10.595.037 5.051 0 10.103-.006 10.586-.03 1.353-.064 2.14-.17 3.008-.395a8.37 8.37 0 0 0 5.46-4.47c.544-1.12.819-2.21.944-3.791.027-.345.038-5.84.038-11.327 0-5.488-.012-10.973-.04-11.318-.126-1.606-.4-2.686-.961-3.828a7.9 7.9 0 0 0-1.712-2.346C35.964 1.231 34.345.462 32.417.183c-.934-.135-1.12-.175-5.9-.183z" style="fill: color(display-p3 0.7623 0.2019 0.2691); fill-opacity: 1;"></path><path fill="#fff" fill-rule="evenodd" d="M20.063 8.18c1.081.497 1.694 1.736 1.694 3.417 0 1.372-.394 3.6-.953 5.325l-.206.643.188.328c.662 1.123 1.924 2.805 2.799 3.71l.443.467.813-.121c2.29-.328 4.639-.261 5.908.176.953.328 1.633.874 1.87 1.505.267.71.06 1.682-.462 2.137-.504.444-1.105.62-2.119.62-1.858 0-3.952-.832-5.9-2.35-.274-.212-.541-.388-.59-.388-.352 0-4.019.928-5.227 1.323l-.91.298-.395.661c-1.907 3.175-3.728 5.136-5.373 5.798-.583.231-1.366.334-1.846.231-.686-.14-1.33-.565-1.633-1.08-.146-.25-.164-.34-.164-.832 0-.516.012-.577.237-1.026.631-1.281 2.793-2.8 5.767-4.044.905-.382.826-.291 1.555-1.724.728-1.427 1.244-2.69 2.282-5.58l.395-1.08-.273-.68c-1.433-3.606-1.409-6.72.066-7.632.395-.242.632-.297 1.172-.279.401.012.595.055.862.176M18.37 9.987c.128-.382.268-.57.51-.698.322-.17.614-.073.826.267.11.183.134.328.152.869.03.789-.055 1.608-.291 2.78-.213 1.038-.413 1.737-.486 1.664-.097-.103-.547-1.621-.68-2.29-.176-.898-.188-2.106-.03-2.592m.322 12.714c.444-.942.899-2.01 1.124-2.617.115-.31.218-.565.236-.565s.207.255.42.559c.212.31.68.929 1.031 1.372.352.443.638.82.632.844-.006.018-.583.182-1.275.358s-1.433.376-1.64.443-.473.14-.594.164l-.213.036zm6.94.346h.006c.285-.03 1.184-.049 2.003-.037 1.573.018 1.985.079 2.41.34.656.407.413 1.409-.394 1.633-.923.255-2.878-.449-4.377-1.572-.376-.279-.37-.28.353-.364M9.907 28.912c.62-.668 1.816-1.475 3.285-2.204.486-.242.892-.43.898-.418.055.048-1.129 1.712-1.718 2.41-1.317 1.584-2.355 2.185-2.878 1.663-.29-.291-.127-.856.413-1.45" clip-rule="evenodd" style="fill: rgb(255, 255, 255); fill-opacity: 1;"></path></g><defs><clipPath id="pdf_svg__a"><path fill="#fff" d="M0 0h40v40H0z" style="fill: rgb(255, 255, 255); fill-opacity: 1;"></path></clipPath></defs></svg>