<svg xmlns="http://www.w3.org/2000/svg" fill="none" viewBox="0 0 40 40" height="48" width="48"><path fill="#24292F" fill-rule="evenodd" d="M25.94 38.341C33.526 35.847 39 28.707 39 20.29c0-10.494-8.507-19-19-19s-19 8.506-19 19c0 8.417 5.474 15.556 13.056 18.051.905.158 1.238-.432 1.238-.93 0-.153-.004-.436-.009-.805-.01-.7-.023-1.71-.023-2.747-5.29 1.142-6.39-2.283-6.39-2.283-.85-2.22-2.11-2.791-2.11-2.791-1.732-1.174.126-1.174.126-1.174 1.92.127 2.928 1.967 2.928 1.967 1.7 2.918 4.439 2.093 5.54 1.585.158-1.236.662-2.093 1.197-2.568-4.219-.445-8.658-2.094-8.658-9.452 0-2.094.755-3.806 1.952-5.138-.189-.476-.85-2.443.19-5.075 0 0 1.605-.508 5.225 1.966a18.3 18.3 0 0 1 4.754-.634c1.606 0 3.243.222 4.754.634 3.62-2.474 5.226-1.966 5.226-1.966 1.04 2.632.378 4.6.189 5.075 1.228 1.332 1.952 3.044 1.952 5.138 0 7.358-4.439 8.976-8.69 9.452.694.602 1.291 1.744 1.291 3.552 0 1.716-.014 3.206-.023 4.195-.004.491-.008.86-.008 1.07 0 .497.333 1.085 1.234.93" clip-rule="evenodd" style="fill: color(display-p3 0.1412 0.1608 0.1843); fill-opacity: 1;"></path><path fill="#fff" d="M8.871 31.575S9.973 35 15.262 33.858c0 1.038.014 2.048.023 2.747.005.37.009.652.009.806 0 .497-.334 1.087-1.238.93 1.87.615 3.868.948 5.944.948s4.072-.333 5.94-.948c-.9.155-1.233-.433-1.233-.93 0-.21.004-.579.008-1.07.01-.99.023-2.479.023-4.195 0-1.808-.598-2.95-1.29-3.553 4.25-.476 8.689-2.093 8.689-9.451 0-2.094-.724-3.806-1.952-5.138.189-.476.85-2.443-.189-5.075 0 0-1.605-.508-5.226 1.966a18.3 18.3 0 0 0-4.754-.634 18.3 18.3 0 0 0-4.754.634c-3.62-2.474-5.226-1.966-5.226-1.966-1.04 2.632-.378 4.6-.189 5.075-1.197 1.332-1.952 3.044-1.952 5.138 0 7.358 4.44 9.007 8.658 9.452-.535.475-1.04 1.331-1.196 2.569-1.102.507-3.841 1.332-5.541-1.586 0 0-1.008-1.84-2.928-1.967 0 0-1.858 0-.126 1.174 0 0 1.26.57 2.11 2.79" style="fill: rgb(255, 255, 255); fill-opacity: 1;"></path></svg>