<svg viewBox="0 0 40 40" height="48" width="48" xmlns="http://www.w3.org/2000/svg">
    <g>
        <path fill="#0A66C2" d="M37.103 0H3.015C1.385 0 0 1.29 0 2.878V37.12C0 38.71.909 40 2.539 40h34.088C38.259 40 40 38.71 40 37.12V2.878A2.87 2.87 0 0 0 37.103 0M15.238 15.238h5.385v2.745h.059c.82-1.48 3.246-2.983 6.244-2.983 5.754 0 7.36 3.055 7.36 8.714v10.572H28.57v-9.53c0-2.533-1.011-4.756-3.377-4.756-2.872 0-4.242 1.945-4.242 5.137v9.149h-5.714zM5.714 34.286h5.715V15.238H5.714zM12.143 8.57a3.571 3.571 0 1 1-7.14.167 3.571 3.571 0 0 1 7.14-.167" />
    </g>
</svg>