<svg xmlns="http://www.w3.org/2000/svg" fill="none" viewBox="0 0 40 40" height="48" width="48"><path fill="#000" fill-rule="evenodd" d="M25.54.09 3.407 1.727C1.622 1.88 1 3.046 1 4.446v24.263c0 1.09.387 2.022 1.32 3.267l5.203 6.765c.855 1.09 1.632 1.323 3.264 1.245L36.49 38.43c2.173-.155 2.796-1.167 2.796-2.877V8.256c0-.884-.349-1.138-1.377-1.893h-.001l-7.24-5.105C28.957.015 28.259-.142 25.54.09" clip-rule="evenodd" style="fill: rgb(0, 0, 0); fill-opacity: 1;"></path><path fill="#fff" fill-rule="evenodd" d="M25.54.09 3.407 1.727C1.622 1.88 1 3.046 1 4.446v24.263c0 1.09.387 2.022 1.32 3.267l5.203 6.765c.855 1.09 1.632 1.323 3.264 1.245L36.49 38.43c2.175-.155 2.796-1.167 2.796-2.877V8.256c0-.884-.349-1.14-1.378-1.893l-.175-.128-7.065-4.977C28.957.015 28.259-.142 25.54.09" clip-rule="evenodd" style="fill: rgb(255, 255, 255); fill-opacity: 1;"></path><path fill="#fff" d="m4.595 3.021 20.563-1.519c2.526-.216 3.175-.07 4.763 1.085l6.564 4.624c1.083.795 1.443 1.012 1.443 1.878v25.36c0 1.59-.577 2.53-2.597 2.674l-23.88 1.446c-1.516.072-2.238-.145-3.032-1.157l-4.834-6.285c-.867-1.157-1.227-2.023-1.227-3.035V5.547c0-1.3.578-2.383 2.237-2.527" style="fill: rgb(255, 255, 255); fill-opacity: 1;"></path><path fill="#000" fill-rule="evenodd" d="M25.158 1.502 4.595 3.022c-1.66.143-2.236 1.227-2.236 2.526v22.544c0 1.012.359 1.878 1.226 3.035l4.834 6.285c.794 1.012 1.516 1.229 3.032 1.157l23.88-1.446c2.019-.144 2.597-1.084 2.597-2.673V9.089c0-.822-.324-1.058-1.279-1.759l-6.728-4.743c-1.588-1.155-2.237-1.301-4.763-1.085M11.991 8.674c-1.95.131-2.392.16-3.5-.74l-2.815-2.24c-.286-.289-.142-.65.579-.723l19.768-1.444c1.66-.145 2.524.433 3.174.939l3.39 2.456c.145.074.505.506.072.506L12.244 8.657zm-2.273 25.56v-21.53c0-.94.289-1.374 1.153-1.447l23.448-1.373c.795-.072 1.154.434 1.154 1.373v21.386c0 .94-.145 1.735-1.443 1.807l-22.438 1.3c-1.298.072-1.874-.36-1.874-1.517m22.149-20.376c.144.65 0 1.3-.65 1.375l-1.082.214v15.896c-.939.506-1.803.794-2.526.794-1.154 0-1.443-.361-2.308-1.444L18.23 19.566v10.765l2.238.507s0 1.3-1.805 1.3l-4.977.29c-.145-.29 0-1.013.505-1.156l1.3-.361V16.678l-1.804-.146c-.145-.65.215-1.59 1.226-1.663l5.34-.36L27.61 25.78v-9.97l-1.876-.216c-.145-.796.432-1.375 1.153-1.446z" clip-rule="evenodd" style="fill: rgb(0, 0, 0); fill-opacity: 1;"></path></svg>