<svg xmlns="http://www.w3.org/2000/svg" fill="none" viewBox="0 0 40 40" height="48" width="48"><g clip-path="url(#docx_svg__a)"><path fill="#185ABD" d="M20.007 0C11.657 0 9.215.009 8.74.048c-1.713.142-2.78.412-3.941.99A8 8 0 0 0 2.5 2.722C1.23 4.04.463 5.661.184 7.587.05 8.523.01 8.713.001 13.492c-.003 1.592 0 3.688 0 6.5 0 8.345.01 10.786.05 11.26.138 1.667.4 2.717.953 3.865 1.059 2.197 3.08 3.846 5.46 4.461.825.213 1.736.33 2.905.385.495.022 5.543.037 10.595.037 5.051 0 10.103-.006 10.586-.03 1.353-.064 2.14-.17 3.008-.395a8.37 8.37 0 0 0 5.46-4.47c.544-1.12.819-2.21.944-3.791.027-.345.038-5.84.038-11.327 0-5.488-.012-10.973-.04-11.318-.126-1.606-.4-2.686-.961-3.828a7.9 7.9 0 0 0-1.712-2.346C35.964 1.231 34.345.462 32.417.183c-.934-.135-1.12-.175-5.9-.183z" style="fill: color(display-p3 0.0941 0.3529 0.7412); fill-opacity: 1;"></path><path fill="#fff" d="m30.05 13.471-3.534 13.057h-4.422l-2.06-8.47-2.129 8.47h-4.399L9.949 13.471h4.002l1.848 9.337L18 13.47h4.235l2.223 9.29 1.825-9.29z" style="fill: rgb(255, 255, 255); fill-opacity: 1;"></path></g><defs><clipPath id="docx_svg__a"><path fill="#fff" d="M0 0h40v40H0z" style="fill: rgb(255, 255, 255); fill-opacity: 1;"></path></clipPath></defs></svg>