<svg xmlns="http://www.w3.org/2000/svg" fill="none" viewBox="0 0 40 40" height="48" width="48"><g clip-path="url(#hwp_svg__a)"><path fill="#37A9FF" d="M20.007 0C11.657 0 9.215.009 8.74.048c-1.713.142-2.78.412-3.941.99A8 8 0 0 0 2.5 2.722C1.23 4.04.463 5.661.184 7.587.05 8.523.01 8.713.001 13.492c-.003 1.592 0 3.688 0 6.5 0 8.345.01 10.786.05 11.26.138 1.667.4 2.717.953 3.865 1.059 2.197 3.08 3.846 5.46 4.461.825.213 1.736.33 2.905.385.495.022 5.543.037 10.595.037 5.051 0 10.103-.006 10.586-.03 1.353-.064 2.14-.17 3.008-.395a8.37 8.37 0 0 0 5.46-4.47c.544-1.12.819-2.21.944-3.791.027-.345.038-5.84.038-11.327 0-5.488-.012-10.973-.04-11.318-.126-1.606-.4-2.686-.961-3.828a7.9 7.9 0 0 0-1.712-2.346C35.964 1.231 34.345.462 32.417.183c-.934-.135-1.12-.175-5.9-.183z" style="fill: color(display-p3 0.2157 0.6627 1); fill-opacity: 1;"></path><path fill="#fff" d="M28.3 15.29h-6.873c.027-.343.054-.93.054-1.643V12.03h-2.954v1.617c0 .713.037 1.3.055 1.643H11.7v2.782h3.423c-1.111.822-1.707 2.186-1.707 3.901 0 3.297 2.619 5.997 6.584 5.997s6.583-2.691 6.583-5.997c0-1.724-.686-3.134-1.707-3.901H28.3zM20 25.197c-2.14 0-3.631-1.67-3.631-3.64 0-1.968 1.49-3.639 3.63-3.639 2.141 0 3.63 1.671 3.63 3.64 0 1.968-1.489 3.64-3.63 3.64" style="fill: rgb(255, 255, 255); fill-opacity: 1;"></path></g><defs><clipPath id="hwp_svg__a"><path fill="#fff" d="M0 0h40v40H0z" style="fill: rgb(255, 255, 255); fill-opacity: 1;"></path></clipPath></defs></svg>